<?xml version="1.0" encoding="UTF-8"?>
<svg id="Ebene_1" xmlns="http://www.w3.org/2000/svg" xmlns:xlink="http://www.w3.org/1999/xlink" version="1.1" viewBox="0 0 1022.59 1022.59">
  <defs>
    <style>
      .st0 {
        display: none;
        fill: url(#Unbenannter_Verlauf_603);
      }

      .st1, .st2 {
        fill: #fff;
      }

      .st3 {
        fill: url(#Unbenannter_Verlauf_542);
      }

      .st4 {
        fill: url(#Unbenannter_Verlauf_23);
      }
    </style>
    <linearGradient id="Unbenannter_Verlauf_542" data-name="Unbenannter Verlauf 542" x1="63.17" y1="1032.66" x2="962.57" y2="-13.73" gradientUnits="userSpaceOnUse">
      <stop offset=".25" stop-color="#2843f3"/>
      <stop offset=".31" stop-color="#4d41da"/>
      <stop offset=".4" stop-color="#7a3fbe"/>
      <stop offset=".5" stop-color="#9f3da6"/>
      <stop offset=".59" stop-color="#bc3b93"/>
      <stop offset=".68" stop-color="#d13a86"/>
      <stop offset=".77" stop-color="#dd3a7e"/>
      <stop offset=".86" stop-color="#e23a7c"/>
    </linearGradient>
    <linearGradient id="Unbenannter_Verlauf_603" data-name="Unbenannter Verlauf 603" x1="517.57" y1="-79.73" x2="502.21" y2="907.05" gradientUnits="userSpaceOnUse">
      <stop offset=".19" stop-color="#fff" stop-opacity=".45"/>
      <stop offset=".28" stop-color="#fff" stop-opacity=".31"/>
      <stop offset=".38" stop-color="#fff" stop-opacity=".2"/>
      <stop offset=".49" stop-color="#fff" stop-opacity=".12"/>
      <stop offset=".58" stop-color="#fff" stop-opacity=".07"/>
      <stop offset=".68" stop-color="#fff" stop-opacity=".05"/>
    </linearGradient>
    <linearGradient id="Unbenannter_Verlauf_23" data-name="Unbenannter Verlauf 23" x1="2076.14" y1="-97.74" x2="2060.79" y2="888.33" gradientTransform="translate(2582.23) rotate(-180) scale(1 -1)" gradientUnits="userSpaceOnUse">
      <stop offset=".15" stop-color="#fff" stop-opacity=".5"/>
      <stop offset=".17" stop-color="#fff" stop-opacity=".46"/>
      <stop offset=".24" stop-color="#fff" stop-opacity=".32"/>
      <stop offset=".31" stop-color="#fff" stop-opacity=".2"/>
      <stop offset=".38" stop-color="#fff" stop-opacity=".12"/>
      <stop offset=".45" stop-color="#fff" stop-opacity=".07"/>
      <stop offset=".52" stop-color="#fff" stop-opacity=".05"/>
    </linearGradient>
  </defs>
  <rect class="st3" width="1022.59" height="1022.59" rx="224.84" ry="224.84"/>
  <path class="st1" d="M440.89,736.7l151.81-.07c5.77,0,9.94-3.23,11.77-7.78,2.05-5.09.49-9.94-3.48-13.87l-102.62-101.51c-11.47-10.78-22.58-21.09-33.03-33.62l106.01-.51,63.42,62.82,53.92,53.54,51.17,51.15c9.07,9.07,9.56,24.64,4.3,35.7-4.76,10.02-13.69,16.19-24.28,18.88l-249.13-.37-302.32-.54c-18.77-.03-35.92-9.69-47.29-23.96-12.57-15.78-17.97-35.25-17.05-55.18.19-4.14-.16-7.69.47-11.99l45.21-308.51c3.6-24.57,37.69-48.14,60.33-48.18l181.28-.35,227.98.1,40.53.16c42.17.16,68.11,43.27,62.91,82.54l-32.12,213.43-48.74-47.2c-5.21-5.05-7.72-10.83-6.59-18.22l22.06-150.01c1.31-8.91-6.24-16.48-14.57-16.48H222.73c-6.3,0-10.76,4.57-11.6,10.67l-10.07,73.2-31.36,217.49c-.6,4.16,0,9.24,2.33,12.38,2.46,3.32,7.6,6.33,12.31,6.33l256.56-.04Z"/>
  <path class="st2" d="M697.95,654.88l89.22-1.54c9.79-.17,16.26-6.56,18.41-15.93l43.35-305.8c.78-5.51-5.44-10.61-10.53-10.64l-48.64-.34h-325.76s-56.05.13-56.05.13c-5.85.7-9.19,5.27-10.97,10.86l-63-.59c-.73-20.14,5.89-39.28,20.08-53.53,13.81-13.86,32.66-23.17,52.84-23.17h139.94s312.3.48,312.3.48c19.18.03,36.3,10.14,46.48,26.21,8.31,13.13,12.75,29.39,10.52,45.31l-44.81,319.27c-1.72,12.27-5.71,23.73-11.43,34.32-12.25,22.68-34.9,33.93-60.25,33.96l-38.87.04"/>
  <path class="st0" d="M952.12,227.95s3.15,74,.46,132.32c-1.23,26.78-22.22,42.72-45.34,57.48-114.29,72.95-286.51,92.19-398.5,91.77h0c-55.47,4.58-302.35-43.62-416.05-115.39-11.17-7.05-22.69-20.07-22.73-34.57-.12-38.6.36-94.15.55-130.51,0-.89,0-2.42,0-3.09,0-.17,0-.33,0-.33h0c0-.08.02-.16.03-.23.14-1.12.29-2.24.45-3.35,8.8-63.03,37.35-108.5,97.77-131.89,22.96-8.89,47.45-13.16,72.07-13.16h270.97s264.47,0,264.47,0c25.25,0,50.36,4.57,73.76,14.09,62.08,25.26,99.11,75.87,102.08,136.87"/>
  <path class="st4" d="M513.34,491.42h0c-111.99.42-284.2-18.81-398.5-91.77-4.62-2.95-9.21-7.02-13.59-11.64-20.65-21.79-31.73-50.93-31.62-80.94l.34-97.21c2.95-60.55,39.45-110.85,100.7-136.3,23.79-9.88,49.38-14.66,75.14-14.66h264.47s3.06,0,3.06,0h264.47c25.79,0,51.43,4.79,75.24,14.7,61.19,25.46,100.94,74.39,100.6,136.26l.34,97.21c-2.22,39.24-10.98,59.16-31.62,80.94-4.38,4.62-8.97,8.69-13.59,11.64-114.29,72.95-286.51,92.19-398.5,91.77h0"/>
</svg>
