<?xml version="1.0" encoding="UTF-8"?>
<svg id="Ebene_1" xmlns="http://www.w3.org/2000/svg" version="1.1" viewBox="0 0 1184.72 215.2">
  <!-- Generator: Adobe Illustrator 30.1.0, SVG Export Plug-In . SVG Version: 2.1.1 Build 136)  -->
  <defs>
    <style>
      .st0 {
        fill: #fff;
      }
    </style>
  </defs>
  <path class="st0" d="M140.12,183.96l55.97-.02c2.13,0,3.67-1.19,4.34-2.87.76-1.88.18-3.67-1.28-5.11l-37.84-37.42c-4.23-3.98-8.32-7.78-12.18-12.4l39.08-.19,23.38,23.16,19.88,19.74,18.87,18.86c3.34,3.34,3.52,9.08,1.59,13.16-1.75,3.69-5.05,5.97-8.95,6.96l-91.85-.14-111.46-.2c-6.92,0-13.24-3.57-17.43-8.83-4.64-5.82-6.63-13-6.28-20.34.07-1.52-.06-2.83.17-4.42l16.67-113.75c1.33-9.06,13.89-17.75,22.24-17.76l66.83-.13,84.05.04,14.94.06c15.55.06,25.11,15.95,23.19,30.43l-11.84,78.69-17.97-17.4c-1.92-1.86-2.84-3.99-2.43-6.72l8.13-55.31c.48-3.29-2.3-6.08-5.37-6.08H59.69c-2.32,0-3.97,1.68-4.28,3.93l-3.71,26.99-11.56,80.18c-.22,1.53,0,3.41.86,4.56.91,1.23,2.8,2.33,4.54,2.33h94.59-.01Z"/>
  <path class="st0" d="M234.89,153.79l32.89-.57c3.61-.06,5.99-2.42,6.79-5.87l15.98-112.74c.29-2.03-2.01-3.91-3.88-3.92l-17.93-.13h-120.1l-20.66.05c-2.16.26-3.39,1.94-4.04,4l-23.23-.22c-.27-7.42,2.17-14.48,7.4-19.73,5.09-5.11,12.04-8.54,19.48-8.54h51.59l115.14.18c7.07.01,13.38,3.74,17.14,9.66,3.07,4.84,4.7,10.83,3.88,16.71l-16.52,117.71c-.63,4.52-2.11,8.75-4.21,12.65-4.52,8.36-12.87,12.51-22.21,12.52h-14.33"/>
  <g>
    <path class="st0" d="M521.95,200.07l-8.96-8.16c-30.29,3.6-69.39,4.38-96.23-11.1-14.27-8.23-22.41-19.13-27.4-34.73-2.85-8.93-4.09-17.88-4.87-27.23-.21-2.49.08-7-.49-7.36v-8.87l.54-8.06c.58-8.74,1.34-17.27,3.14-25.82,3.14-14.92,11.98-27.29,24.97-35.14,7.2-4.35,14.79-7.3,23.04-9.37,17.24-4.34,35.78-5.05,53.58-4.39,10.02.37,19.62,1.61,29.28,4.03,28.15,7.05,46.7,24.07,53.17,52.69,2.56,11.33,3.55,22.58,3.32,34.25-.25,10.94-1.53,21.38-3.82,32.05-2.56,12.63-9.21,23.54-18.92,32.01l17.65,24.94M493.16,162.76l-13.46-20.35,48.37-.3c1.91-4.82,2.98-9.48,3.62-14.61,1.76-14.16,1.46-28.3-.52-42.39-.91-5.22-2.19-9.87-4.73-14.47-4.92-8.9-13.17-15.35-23.26-17.39-18.2-3.7-45.59-4.9-61.77,5.65-7.24,4.72-12.08,12.02-13.13,20.77-2.04,17.01-2.25,34.17-.09,51.15,1.5,11.8,8.8,21.22,19.27,26.26,5.57,2.73,11.2,4.16,17.35,5.16,9.41,1.32,18.67,1.43,28.35.51h0Z"/>
    <path class="st0" d="M931.58,193.32l-45.83-61.22-41.66-.28-.06,24.65-.07,36.85h-40.55l-.05-47.8-.07-82.06-.06-38.98,117.68.06c8.18-.06,14.19,1.27,20.97,3.54,11.68,3.91,21.53,10.94,26.07,22.4,2.46,6.2,3.68,12.53,4.03,19.26.48,9.26-.09,18.34-1.74,27.48-1.57,8.65-6.32,15.93-13.09,21.36-8.51,6.57-17.83,9.47-28.71,11.53,0,0,45.08,63.2,45.07,63.22M929.04,91.46c3.68-8.76,3.69-18.74-.34-27.35-1.82-3.89-4.57-6.83-8.45-8.61-4.26-1.95-8.78-3.12-13.69-3.14l-57.33-.29c-2.85,0-5.17,2.3-5.16,5.15l.04,14.29.04,27.27c0,2.83,2.3,5.12,5.12,5.13l25.89.04s29.83.04,30.02.04c10.16-.1,19.53-2.24,23.86-12.53h0Z"/>
    <path class="st0" d="M995.46,193.05c-.02-40.07-.06-129.5-.09-168.84h93.66c2.88.08,3.75.14,6.1.38,4.61.47,8.16.61,17.44,3.27,7.94,2.28,12.72,4.19,20.2,7.55,33.38,16.61,41.5,50.17,39.84,83.72-.69,15.28-4.56,31.58-13.12,44.57-5.64,8.57-13.17,14.63-22.33,18.86-13.06,6.04-26.78,10.21-41.3,10.27M1131.37,109.89c0-7.37-.67-14.43-1.85-21.68-4.18-22.87-23.16-31.96-44.49-33.82-13.41-1.4-35.88-.49-49.61-.33.01,18.14.03,93.57.13,110.13l47.95-.13c7.36.13,13.84-1.97,20.48-4.35,22.21-7.96,27.4-28.62,27.38-49.82h.01Z"/>
    <path class="st0" d="M743.63,192.92l-15.95-39.92-83.84-.02-15.15,39.94h-42.15l70.52-168.48,9.36-.07,48.34-.02,70.51,168.57h-41.64,0ZM716.98,125.99l-31.4-76.25-31.15,76.44,62.54-.2h.01Z"/>
  </g>
</svg>