<?xml version="1.0" encoding="UTF-8"?>
<svg id="Ebene_1" xmlns="http://www.w3.org/2000/svg" xmlns:xlink="http://www.w3.org/1999/xlink" version="1.1" viewBox="0 0 1181.65 251.04">
  <!-- Generator: Adobe Illustrator 30.1.0, SVG Export Plug-In . SVG Version: 2.1.1 Build 136)  -->
  <defs>
    <style>
      .st0 {
        fill: #fff;
      }

      .st1 {
        fill: url(#Unbenannter_Verlauf_105);
      }

      .st2 {
        fill: url(#Unbenannter_Verlauf_102);
      }
    </style>
    <linearGradient id="Unbenannter_Verlauf_102" data-name="Unbenannter Verlauf 102" x1="12.08" y1="145.02" x2="244.92" y2="145.02" gradientUnits="userSpaceOnUse">
      <stop offset="0" stop-color="#e23a7c"/>
      <stop offset=".13" stop-color="#dd3a7e"/>
      <stop offset=".28" stop-color="#cf3a87"/>
      <stop offset=".43" stop-color="#b93b96"/>
      <stop offset=".59" stop-color="#993daa"/>
      <stop offset=".76" stop-color="#703fc4"/>
      <stop offset=".93" stop-color="#3f41e3"/>
      <stop offset="1" stop-color="#2843f3"/>
    </linearGradient>
    <linearGradient id="Unbenannter_Verlauf_105" data-name="Unbenannter Verlauf 105" x1="48.69" y1="107.14" x2="280.21" y2="107.14" gradientUnits="userSpaceOnUse">
      <stop offset="0" stop-color="#e23a7c"/>
      <stop offset=".18" stop-color="#de3a7e"/>
      <stop offset=".33" stop-color="#d43a84"/>
      <stop offset=".47" stop-color="#c33b8f"/>
      <stop offset=".6" stop-color="#ab3c9e"/>
      <stop offset=".72" stop-color="#8d3eb2"/>
      <stop offset=".84" stop-color="#673fca"/>
      <stop offset=".96" stop-color="#3b42e6"/>
      <stop offset="1" stop-color="#2843f3"/>
    </linearGradient>
  </defs>
  <g>
    <path class="st0" d="M512.18,208.98c-31.33,3.34-68.67,4.59-96.8-11.43-25.18-14.34-30.83-40.66-32.08-67.56-.58-12.46.88-29.27,2.96-41.59,2.9-17.2,13.24-31.34,28.65-39.46,19.28-10.16,43.11-12.25,64.75-12.11,19.07.13,38.25,2.2,55.51,10.49,16.3,7.82,28.1,21.51,33.56,38.78,3.39,10.73,4.81,21.49,5.36,32.85.47,15.35-1.11,30.16-4.73,45.04-3.16,10.96-9.22,20.25-17.91,27.87l17.58,24.9-47.99.32-8.88-8.1ZM492.09,179.68l-13.26-20.25,48.3-.32c6.39-15.94,5.61-44.66,2.16-61.02-2.62-12.41-11.36-23.15-23.67-26.62-17.6-4.97-45.12-5.78-61.92,2.83-7.98,4.09-14.34,11.23-15.79,20.3-2.74,17.1-2.5,34.09-.86,51.25,1.88,19.65,16.58,29.91,34.93,33.06,10.02,1.58,19.91,1.86,30.11.77Z"/>
    <path class="st0" d="M927.54,147.3l44.87,62.98-41.89.1-45.9-61.21-41.55-.22-.16,61.41-40.57-.04-.16-168.6,119.81.04c10.45,0,20.06,3.38,29.05,7.96,6.64,4.11,12.02,9.25,15.19,16.39,3.47,7.81,4.71,15.99,4.81,24.56.1,9.15-.52,17.88-2.54,26.77-2.8,9.52-9.2,16.98-17.83,21.87-6.96,4.13-14.33,6.02-23.13,7.98ZM927.94,108.49c3.64-8.8,3.7-18.44-.32-27.08-1.53-3.28-3.77-6.22-7.03-7.91-4.09-2.13-8.6-3.83-13.43-3.86l-58.43-.38c-3.48-.02-5.68,2.23-5.68,5.68l.1,40.64c0,2.87,1.95,5.38,5.02,5.39l57.02.08c9.8.01,18.82-3.07,22.74-12.55Z"/>
    <path class="st0" d="M1170.36,109.49c3.03,21.67,1.44,45.91-8.71,65.66-9.32,18.13-23.57,24.73-42.1,30.8-8.52,2.5-16.75,3.89-25.8,3.9l-99.4.17-.06-66.77-.04-101.88h94.21c4.79.01,8.98.84,13.59,1.32,10.98,2.43,21.42,5.71,31.44,10.87,21.93,11.31,33.52,31.95,36.88,55.92ZM1127.83,103.27c-2.28-11.07-9.38-19.84-19.28-25.03-6.25-3.28-12.74-4.95-19.72-6.14-7.66-.83-15.06-1.39-22.87-1.28l-31.65.44.09,109.94,50.36-.22c6.21-.03,11.77-2.25,17.52-4.1,10.78-3.64,19.13-11.33,23.32-21.96,5.98-15.18,5.46-35.92,2.22-51.66Z"/>
    <path class="st0" d="M726.69,170.06l-83.78-.02-15.15,39.92-42.2-.05,70.5-168.29,57.73-.15,70.5,168.38-41.67.12-15.92-39.9ZM715.86,142.92l-31.25-75.75-31.09,76.06,62.34-.31Z"/>
  </g>
  <path class="st2" d="M157.2,229.67l-119.37-.09c-7.23-.01-14.15-3.51-18.99-9.59-4.78-6-7.1-13.49-6.72-21.68.02-.51.02-1,.02-1.48,0-.97,0-1.97.17-3.13l16.67-113.74c1.47-10.01,14.89-19.46,24.22-19.47l74.74-.23,84.06.04,14.95.06c6.9.03,13.29,3.01,18,8.41,5.64,6.46,8.32,15.54,7.17,24.29l-10.99,73.03-20.76-20.11c-2.49-2.41-3.5-5.26-3.01-8.46l6.7-45.76c.18-1.23-.41-2.12-.77-2.54-.67-.78-1.65-1.24-2.62-1.24l-162.8.11c-1.47,0-2.15,1.14-2.29,2.21l-3.71,26.99-11.56,80.2c-.17,1.18.04,2.48.49,3.09.54.74,1.85,1.52,2.93,1.52l102.49-.12,55.97-.02c1.6,0,2.24-1.01,2.49-1.62.15-.38.61-1.52-.83-2.95l-37.84-37.42-.51-.48c-4.13-3.88-8.03-7.54-11.79-12.06l-2.72-3.26,44.16-.21,23.97,23.74,19.88,19.74,18.87,18.86c4.14,4.14,4.13,10.9,1.98,15.43-1.89,3.99-5.54,6.84-10.26,8.04l-.24.06-92.1-.14Z"/>
  <path class="st1" d="M281.54,196.34c-2.3,0-4.54-.06-6.71-.12l-1.91-.05-27.3-25.66,31.36-.65c3.33-.06,4.47-2.64,4.85-4.24l17.03-117.39c.04-.31-.23-.66-.34-.8-.47-.54-1.16-.84-1.57-.84-10.66-.1-34.19-.14-69.94-.14-32.73,0-83.25.04-100.35.06h-4.22c-.48.08-1.55.38-2.27,2.62l-.45,1.41-26.55-.25-.12-1.85c-.51-7.49,2.29-15.12,7.7-20.92,5.59-6.01,13.31-9.47,21.18-9.49,6.01-.04,14.38-.06,25.56-.06,20.59,0,62.86.07,88.31.13,22.88.06,44.48.11,59.69.11,3.39,0,6.45,0,9.13,0h.24c6.23,0,12.07,2.77,16.45,7.8,4.98,5.73,7.34,13.52,6.31,20.85v.08s-.03.08-.03.08c-.33,1.5-1.67,11.53-3.35,24.23-2.54,19.11-7.08,50.03-10.38,71.78-4.88,32.19-7.76,38.01-8.54,40.19-5.95,11.57-12.13,13.15-23.75,13.15Z"/>
</svg>